<?xml version="1.0" encoding="UTF-8"?>
<svg width="64px" height="64px" viewBox="0 0 64 64" version="1.1" xmlns="http://www.w3.org/2000/svg" xmlns:xlink="http://www.w3.org/1999/xlink">
    <!-- Generator: Sketch 51.3 (57544) - http://www.bohemiancoding.com/sketch -->
    <title>Artboard</title>
    <desc>Created with Sketch.</desc>
    <defs></defs>
    <g id="Artboard" stroke="none" stroke-width="1" fill="none" fill-rule="evenodd">
        <path d="M33.4740469,19.2930049 L32.8820356,21.4637129 L28.0801665,21.4637129 L24.4623199,35.8364308 C22.8616888,42.1731757 21.2501187,47.0736644 19.6275612,50.5380439 C17.3252837,55.4276429 14.8476316,58.804266 12.1945309,60.6680144 C10.1772972,62.0932339 8.16009381,62.8058329 6.14286015,62.8058329 C4.82727298,62.8058329 3.70904066,62.4111627 2.78812964,61.6218104 C2.10840961,61.0736491 1.76855469,60.36105 1.76855469,59.4839919 C1.76855469,58.7823454 2.04811277,58.1738955 2.60723731,57.6586238 C3.16636186,57.1433522 3.85155323,56.8857203 4.66283199,56.8857203 C5.25484621,56.8857203 5.75366553,57.0720923 6.15930491,57.444842 C6.56494428,57.8175917 6.76776093,58.2451511 6.76776093,58.7275331 C6.76776093,59.209915 6.53753663,59.6594006 6.07708112,60.0760032 C5.72625787,60.3829735 5.55084888,60.6131978 5.55084888,60.766683 C5.55084888,60.9640211 5.62759032,61.1175039 5.78107549,61.2271362 C5.97841356,61.3806214 6.2853793,61.4573628 6.7019819,61.4573628 C7.64481937,61.4573628 8.63697648,61.1613601 9.67848298,60.5693459 C10.7199895,59.9773317 11.6463682,59.0948052 12.457647,57.92174 C13.2689257,56.7486747 14.0363401,55.0548817 14.759913,52.8403099 C15.0668834,51.9193989 15.889113,48.8826308 17.2266266,43.7299144 L22.9494022,21.4637129 L17.2266266,21.4637129 L17.6870798,19.2930049 C19.5069754,19.2930049 20.7786906,19.1669297 21.5022635,18.9147755 C22.2258365,18.6626213 22.8891017,18.1802465 23.4920792,17.4676368 C24.0950566,16.7550271 24.8789156,15.4230151 25.8436795,13.4715608 C27.1373402,10.8403865 28.3761662,8.80125693 29.5601946,7.35411105 C31.1827522,5.40265675 32.8875083,3.93908798 34.6745142,2.96336083 C36.4615201,1.98763368 38.1443501,1.49977742 39.7230547,1.49977742 C41.3894651,1.49977742 42.7269587,1.92185531 43.7355755,2.76602374 C44.7441923,3.61019217 45.2484932,4.52560784 45.2484932,5.51229822 C45.2484932,6.27972407 44.9963428,6.92654472 44.4920343,7.45277959 C43.9877259,7.97901446 43.3409053,8.24212794 42.551553,8.24212794 C41.8718329,8.24212794 41.3181983,8.04479283 40.8906325,7.65011668 C40.4630666,7.25544053 40.2492869,6.78402886 40.2492869,6.23586754 C40.2492869,5.8850443 40.3918067,5.45200335 40.6768506,4.93673171 C40.9618945,4.42146007 41.1044143,4.07612362 41.1044143,3.900712 C41.1044143,3.59374166 41.0057468,3.36351736 40.8084087,3.21003219 C40.5233648,2.99076766 40.1067684,2.88113704 39.5586071,2.88113704 C38.1772406,2.88113704 36.9384146,3.31965952 35.842092,4.19671763 C34.3730196,5.35881963 33.0574522,7.17868791 31.8953502,9.65637708 C31.303336,10.9500378 30.2179928,14.1622149 28.6392882,19.2930049 L33.4740469,19.2930049 Z" id="f" fill="#000000"></path>
        <path d="M35.2313421,47.0452668 L34.7612567,47.2664834 C33.6643854,45.1741323 32.876309,43.3260701 32.3970039,41.7222414 C32.0283077,40.4686742 31.8439623,39.2059085 31.8439623,37.9339065 C31.8439623,34.9659017 32.5306487,32.30672 33.9040422,29.9562814 C35.5908276,27.0804508 38.3237475,24.2784013 42.1028839,21.5500492 L42.4347089,22.0339606 C40.7294888,23.2967452 39.3376813,24.7115958 38.2592448,26.2785548 C36.9135035,28.2326449 35.81204,30.5922655 34.9548213,33.3574873 C34.0976025,36.1227091 33.6689996,38.6390232 33.6689996,40.9065051 C33.6689996,42.6393774 34.1897752,44.6856109 35.2313421,47.0452668 Z M44.2459201,28.6981118 C44.697573,29.1774169 45.0386119,29.6567148 45.2690471,30.13602 C45.4349604,30.4678466 45.7068698,31.3388784 46.0847834,32.7491415 L47.3014749,30.9241042 C47.6240842,30.4816687 48.015818,30.0599787 48.4766883,29.6590216 C48.9375586,29.2580644 49.3431184,28.9838507 49.6933799,28.8363722 C49.9145976,28.7441981 50.1588552,28.6981118 50.42616,28.6981118 C50.8225084,28.6981118 51.1381999,28.8041104 51.3732437,29.0161107 C51.6082876,29.2281111 51.7258077,29.4861946 51.7258077,29.790369 C51.7258077,30.1406304 51.6566782,30.3802794 51.5184171,30.509323 C51.2603298,30.7397582 50.9653772,30.854974 50.6335506,30.854974 C50.439985,30.854974 50.2325965,30.8134963 50.0113788,30.7305397 C49.5781607,30.5830612 49.2878168,30.509323 49.1403383,30.509323 C48.9191205,30.509323 48.6564284,30.6383648 48.352254,30.8964522 C47.7807748,31.3757573 47.098697,32.3020927 46.3060001,33.6754862 L47.4397353,38.4316439 C47.6148661,39.159819 47.7623423,39.5953349 47.8821686,39.7382047 C48.0019949,39.8810745 48.1218194,39.9525083 48.2416457,39.9525083 C48.4352112,39.9525083 48.6610343,39.8465097 48.9191216,39.6345094 C49.426079,39.2105087 49.8592905,38.6574727 50.2187694,37.9753846 L50.7026808,38.2242533 C50.1219842,39.3119072 49.3846028,40.2151995 48.4905144,40.9341572 C47.9835571,41.339723 47.5549541,41.5425029 47.2046927,41.5425029 C46.6885179,41.5425029 46.2783495,41.252159 45.9741751,40.6714624 C45.7806096,40.3119836 45.3796584,38.7634826 44.7713096,36.025913 C43.3333943,38.52383 42.1812358,40.1322432 41.3147997,40.8512009 C40.7525379,41.3120712 40.2087191,41.5425029 39.6833269,41.5425029 C39.3146307,41.5425029 38.9782004,41.4088525 38.674026,41.1415478 C38.4528083,40.9387648 38.3422011,40.6668554 38.3422011,40.3258114 C38.3422011,40.021637 38.443591,39.7681621 38.6463739,39.5653792 C38.8491569,39.3625963 39.0980231,39.2612063 39.3929801,39.2612063 C39.6879371,39.2612063 40.0013242,39.4086826 40.3331508,39.7036396 C40.5728034,39.9156399 40.7571487,40.0216385 40.8861924,40.0216385 C40.9968013,40.0216385 41.1396689,39.9479004 41.3147997,39.8004219 C41.7480177,39.4501605 42.3379229,38.6943445 43.0845328,37.5329513 C43.8311427,36.3715582 44.3196579,35.5327868 44.550093,35.0166121 C43.9786138,32.7767824 43.6698354,31.5923635 43.6237483,31.4633198 C43.411748,30.8641884 43.13523,30.4401941 42.7941859,30.1913241 C42.4531419,29.9424542 41.9508008,29.818021 41.2871476,29.818021 C41.0751472,29.818021 40.8308896,29.8272383 40.5543675,29.8456731 L40.5543675,29.3479357 L44.2459201,28.6981118 Z M56.0257062,21.8127439 L56.4957915,21.5500492 C57.5926628,23.6331829 58.3761306,25.4766365 58.8462183,27.0804651 C59.2241319,28.3340324 59.4130859,29.596798 59.4130859,30.8688001 C59.4130859,33.8460222 58.7263995,36.505204 57.353006,38.8464251 C55.6570033,41.7314732 52.9240834,44.5381313 49.1541643,47.2664834 L48.8223393,46.8378762 C50.5275595,45.5658742 51.9193669,44.1510236 52.9978034,42.5932819 C54.3435447,40.6391919 55.4450082,38.277267 56.302227,35.5074365 C57.1594457,32.737606 57.5880487,30.2189875 57.5880487,27.9515057 C57.5880487,26.2186333 57.067273,24.1723999 56.0257062,21.8127439 Z" id="(x)" fill="#000000"></path>
    </g>
</svg>